<?xml version="1.0" encoding="UTF-8" standalone="no"?>
<!-- Created with Inkscape (http://www.inkscape.org/) -->

<svg
   width="31.143999mm"
   height="34.042mm"
   viewBox="0 0 31.143999 34.042"
   version="1.1"
   id="svg78"
   xmlns="http://www.w3.org/2000/svg"
   xmlns:svg="http://www.w3.org/2000/svg">
  <defs
     id="defs75" />
  <g
     id="layer1">
    <path
       d="M 28.368243,14.308267 C 26.097324,9.3370112 22.997202,5.4799156 19.919832,3.4447406 l 0.80724,-1.654175 c 0.14129,-0.298979 0.15902,-0.640292 0.0476,-0.95117705 -0.1106,-0.31115 -0.34052,-0.564621 -0.6387,-0.70590797 -0.29793,-0.141023 -0.64056,-0.15875 -0.95145,-0.04736 -0.31088,0.11059597 -0.56462,0.34051897 -0.70564,0.63949797 l -0.73422,1.51500405 c -0.68712,-0.291041 -1.43219,-0.421216 -2.17726,-0.377825 -0.73739,-0.03254 -1.47267,0.09657 -2.1545,0.378884 l -0.73342,-1.51500505 c -0.28416,-0.61568497 -1.04114,-0.87550597 -1.65709,-0.59213697 -0.61595,0.28416197 -0.8755,1.04219402 -0.59214,1.65814402 l 0.8054,1.656027 C 8.1572227,5.4857376 5.0314327,9.3449492 2.7822127,14.316205 c -3.9814499,8.780992 -3.62902991,17.232313 0.82127,19.266429 0.71067,0.330729 1.49119,0.472811 2.32039,0.472811 2.95884,-0.0011 6.5354693,-1.9177 9.6109893,-4.689211 3.26681,2.886869 6.98156,4.637882 9.823186,4.636823 0.804334,0 1.538553,-0.142081 2.17805,-0.426244 2.271977,-1.041399 3.574786,-3.717131 3.623205,-7.551472 0.02381,-3.503613 -0.969169,-7.670536 -2.79109,-11.717073 M 15.559472,25.933795 c -0.71173,-0.772848 -1.3679,-1.595967 -1.964,-2.461683 l 3.93012,-7.94e-4 c -0.58923,0.871273 -1.24672,1.694391 -1.96612,2.462477 m 3.76528,-5.729288 -7.52766,0.0019 c -0.44106,-1.005681 -0.78158,-2.051843 -1.01653,-3.12367 l 9.56257,-0.0029 c -0.23574,1.072621 -0.57626,2.118784 -1.01838,3.124729 M 15.564492,4.3449126 c 0.49742,0.02487 1.01733,0.165894 1.58698,0.403755 1.42028,0.851693 2.67361,2.912533 3.24299,5.3945884 0.28628,1.209146 0.40561,2.450836 0.35534,3.69226 l -10.37193,0.0029 c -0.0257,-1.239573 0.0937,-2.479146 0.35639,-3.691996 0.56833,-2.4852304 1.82377,-4.5450114 3.24617,-5.3959114 0.49742,-0.233892 1.03532,-0.370946 1.58406,-0.405607 M 4.6218627,31.333459 c -2.69717,-1.230841 -3.19273,-8.094133 0.40666,-15.977922 0.88636,-1.974057 1.982,-3.847306 3.26787,-5.5882648 -0.83106,3.7898918 -0.35719,7.9539038 1.3935597,11.7646978 1.0413996,2.295525 2.4852296,4.355306 4.1177096,6.129867 -3.48006,3.031066 -7.3154593,4.499504 -9.1857993,3.671622 m 21.8741583,-0.0069 c -1.870339,0.851694 -5.727439,-0.637646 -9.208289,-3.69226 1.72799,-1.87034 3.19457,-3.975629 4.14416,-6.084623 1.72906,-3.811587 2.22647,-7.976658 1.39939,-11.7646978 1.15781,1.5644818 2.271179,3.4356148 3.264954,5.5893228 1.67984,3.715808 2.601648,7.50279 2.554287,10.651067 -0.02461,2.745845 -0.807508,4.687093 -2.154502,5.301191"
       style="clip-rule:evenodd;fill:#645f51;fill-rule:nonzero;stroke-width:0.264583;stroke-miterlimit:10"
       id="path2" />
  </g>
</svg>
