<?xml version="1.0" encoding="UTF-8" standalone="no"?>
<!-- Created with Inkscape (http://www.inkscape.org/) -->

<svg
   width="121.774mm"
   height="32.865002mm"
   viewBox="0 0 121.774 32.865002"
   version="1.1"
   id="svg155"
   xmlns="http://www.w3.org/2000/svg"
   xmlns:svg="http://www.w3.org/2000/svg">
  <defs
     id="defs152" />
  <g
     id="layer1">
    <g
       transform="matrix(0.26458333,0,0,0.26458333,9.7673182,13.389317)"
       id="g8"
       style="clip-rule:evenodd;fill-rule:evenodd;stroke-miterlimit:10">
      <path
         d="m 0,31.588 c 4.479,0 8.146,-1.452 11.006,-4.357 2.859,-2.909 4.288,-6.744 4.288,-11.509 0,-4.761 -1.429,-8.596 -4.288,-11.505 C 8.146,1.312 4.479,-0.145 0,-0.145 c -4.479,0 -8.146,1.457 -11.006,4.362 -2.859,2.909 -4.288,6.744 -4.288,11.505 0,4.765 1.429,8.6 4.288,11.509 2.86,2.905 6.527,4.357 11.006,4.357 m 40.877,2.147 c 1.43,0 2.524,-0.241 3.291,-0.717 l -1.289,15.58 c -1.144,0.286 -2.669,0.572 -4.575,0.858 -1.906,0.286 -3.667,0.426 -5.287,0.426 -7.529,0 -12.721,-2.523 -15.58,-7.574 -2.955,2.573 -6.268,4.552 -9.935,5.931 -3.667,1.38 -7.597,2.074 -11.791,2.074 -4.575,0 -8.841,-0.88 -12.794,-2.645 -3.953,-1.761 -7.406,-4.189 -10.361,-7.289 -2.954,-3.095 -5.264,-6.74 -6.934,-10.933 -1.666,-4.194 -2.501,-8.768 -2.501,-13.724 0,-4.952 0.835,-9.526 2.501,-13.72 1.67,-4.193 3.98,-7.838 6.934,-10.937 2.955,-3.096 6.408,-5.501 10.361,-7.217 3.953,-1.715 8.219,-2.573 12.794,-2.573 8.383,0 15.531,2.573 21.44,7.72 l 1.003,-6.15 h 17.581 v 45.457 c 0,1.906 0.45,3.286 1.357,4.144 0.904,0.858 2.165,1.289 3.785,1.289"
         style="fill:#0387c9;fill-rule:nonzero"
         id="path6" />
    </g>
    <g
       transform="matrix(0.26458333,0,0,0.26458333,34.538404,19.554374)"
       id="g12"
       style="clip-rule:evenodd;fill-rule:evenodd;stroke-miterlimit:10">
      <path
         d="m 0,8.287 c 4.575,0 8.264,-1.502 11.078,-4.502 2.81,-3 4.216,-6.79 4.216,-11.364 0,-4.575 -1.406,-8.36 -4.216,-11.364 -2.814,-3 -6.503,-4.503 -11.078,-4.503 -4.67,0 -8.41,1.525 -11.223,4.575 -2.81,3.05 -4.217,6.817 -4.217,11.292 0,4.479 1.407,8.246 4.217,11.291 C -8.41,6.767 -4.67,8.287 0,8.287 m 3.572,-50.313 c 4.574,0 8.886,0.858 12.934,2.573 4.053,1.716 7.579,4.121 10.579,7.217 3,3.099 5.36,6.744 7.076,10.937 1.715,4.194 2.573,8.768 2.573,13.72 0,4.956 -0.858,9.53 -2.573,13.724 -1.716,4.193 -4.076,7.838 -7.076,10.933 -3,3.1 -6.526,5.528 -10.579,7.289 -4.048,1.765 -8.36,2.645 -12.934,2.645 -7.244,0 -13.579,-2.046 -19.012,-6.145 v 29.446 h -20.722 v -70.754 l -1.43,-19.443 19.152,-1.711 0.572,7.575 c 5.909,-5.337 13.053,-8.006 21.44,-8.006"
         style="fill:#0387c9;fill-rule:nonzero"
         id="path10" />
    </g>
    <g
       transform="matrix(0.26458333,0,0,0.26458333,54.429248,4.2742358)"
       id="g16"
       style="clip-rule:evenodd;fill-rule:evenodd;stroke-miterlimit:10">
      <path
         d="m 0,68.185 c 0.858,0 1.598,-0.073 2.215,-0.218 0.622,-0.141 1.121,-0.308 1.502,-0.499 l -1.284,15.58 c -1.053,0.286 -2.41,0.572 -4.076,0.858 -1.67,0.286 -3.885,0.427 -6.644,0.427 -5.628,0 -9.844,-1.475 -12.653,-4.43 -2.81,-2.95 -4.216,-7.098 -4.216,-12.435 V 37.451 l -1.285,-19.724 22.012,-1.43 v 46.882 c 0,1.625 0.403,2.859 1.216,3.717 0.808,0.858 1.879,1.289 3.213,1.289 M -14.723,8.292 c -3.431,0 -6.313,-1.144 -8.645,-3.431 -2.338,-2.283 -3.554,-5.192 -3.645,-8.719 -0.095,-3.617 1.071,-6.571 3.5,-8.859 2.432,-2.287 5.359,-3.431 8.79,-3.431 3.431,0 6.336,1.144 8.719,3.431 2.382,2.288 3.576,5.192 3.576,8.719 0.091,3.621 -1.071,6.576 -3.504,8.859 -2.428,2.287 -5.36,3.431 -8.791,3.431"
         style="fill:#0387c9;fill-rule:nonzero"
         id="path14" />
    </g>
    <g
       transform="matrix(0.26458333,0,0,0.26458333,67.250168,6.3933895)"
       id="g20"
       style="clip-rule:evenodd;fill-rule:evenodd;stroke-miterlimit:10">
      <path
         d="m 0,58.029 c 4.479,0 8.146,-1.452 11.006,-4.357 2.859,-2.909 4.288,-6.744 4.288,-11.509 0,-4.761 -1.429,-8.596 -4.288,-11.505 C 8.146,27.753 4.479,26.296 0,26.296 c -4.479,0 -8.146,1.48 -11.006,4.434 -2.859,2.955 -4.288,6.767 -4.288,11.433 0,4.86 1.475,8.718 4.429,11.577 2.955,2.859 6.576,4.289 10.865,4.289 m 40.877,2.147 c 1.335,0 2.478,-0.241 3.432,-0.717 l -1.285,15.58 c -1.144,0.286 -2.668,0.572 -4.575,0.858 -1.906,0.286 -3.717,0.426 -5.432,0.426 -7.72,0 -12.962,-2.618 -15.721,-7.86 -2.764,2.668 -5.982,4.72 -9.649,6.149 -3.671,1.425 -7.647,2.142 -11.936,2.142 -4.384,0 -8.555,-0.857 -12.508,-2.573 -3.953,-1.715 -7.429,-4.075 -10.433,-7.075 -3,-3 -5.36,-6.576 -7.076,-10.72 -1.715,-4.143 -2.573,-8.646 -2.573,-13.506 0,-5.337 0.858,-10.148 2.573,-14.437 1.716,-4.289 4.026,-7.983 6.935,-11.078 2.904,-3.095 6.335,-5.478 10.288,-7.148 3.953,-1.666 8.22,-2.501 12.794,-2.501 7.525,0 13.96,1.956 19.298,5.859 v -31.301 l 20.726,-0.999 v 73.468 c 0,1.906 0.45,3.286 1.357,4.144 0.904,0.858 2.165,1.289 3.785,1.289"
         style="fill:#0387c9;fill-rule:nonzero"
         id="path18" />
    </g>
    <g
       transform="matrix(0.26458333,0,0,0.26458333,90.848088,13.389317)"
       id="g24"
       style="clip-rule:evenodd;fill-rule:evenodd;stroke-miterlimit:10">
      <path
         d="m 0,31.588 c 4.479,0 8.146,-1.452 11.006,-4.357 2.859,-2.909 4.288,-6.744 4.288,-11.509 0,-4.761 -1.429,-8.596 -4.288,-11.505 C 8.146,1.312 4.479,-0.145 0,-0.145 c -4.479,0 -8.146,1.457 -11.006,4.362 -2.859,2.909 -4.288,6.744 -4.288,11.505 0,4.765 1.429,8.6 4.288,11.509 2.86,2.905 6.527,4.357 11.006,4.357 m 40.878,2.147 c 1.429,0 2.523,-0.241 3.29,-0.717 l -1.289,15.58 c -1.144,0.286 -2.669,0.572 -4.575,0.858 -1.906,0.286 -3.667,0.426 -5.287,0.426 -7.529,0 -12.721,-2.523 -15.58,-7.574 -2.955,2.573 -6.268,4.552 -9.935,5.931 -3.667,1.38 -7.597,2.074 -11.791,2.074 -4.575,0 -8.841,-0.88 -12.794,-2.645 -3.953,-1.761 -7.406,-4.189 -10.361,-7.289 -2.954,-3.095 -5.264,-6.74 -6.934,-10.933 -1.666,-4.194 -2.501,-8.768 -2.501,-13.724 0,-4.952 0.835,-9.526 2.501,-13.72 1.67,-4.193 3.98,-7.838 6.934,-10.937 2.955,-3.096 6.408,-5.501 10.361,-7.217 3.953,-1.715 8.219,-2.573 12.794,-2.573 8.383,0 15.531,2.573 21.44,7.72 l 1.003,-6.15 h 17.581 v 45.457 c 0,1.906 0.45,3.286 1.357,4.144 0.904,0.858 2.165,1.289 3.786,1.289"
         style="fill:#0387c9;fill-rule:nonzero"
         id="path22" />
    </g>
    <g
       transform="matrix(0.26458333,0,0,0.26458333,114.52274,22.239365)"
       id="g28"
       style="clip-rule:evenodd;fill-rule:evenodd;stroke-miterlimit:10">
      <path
         d="m 0,-35.309 c -3.717,0 -7.125,1.194 -10.221,3.576 -3.095,2.383 -5.073,5.814 -5.931,10.289 8.382,0.195 14.387,-0.449 18.008,-1.929 3.622,-1.475 5.433,-3.594 5.433,-6.358 0,-1.906 -0.645,-3.313 -1.929,-4.216 C 4.076,-34.855 2.287,-35.309 0,-35.309 m -16.438,21.013 c 0.667,4.098 2.646,7.388 5.932,9.862 3.285,2.478 8.169,3.717 14.65,3.717 5.432,0 9.793,-0.667 13.079,-2.002 3.286,-1.334 6.123,-2.904 8.505,-4.715 l -1.575,18.439 c -1.906,1.335 -4.928,2.642 -9.072,3.931 -4.148,1.284 -9.363,1.929 -15.653,1.929 -5.528,0 -10.556,-0.763 -15.081,-2.288 -4.525,-1.525 -8.387,-3.69 -11.577,-6.503 -3.196,-2.81 -5.669,-6.263 -7.434,-10.362 -1.761,-4.098 -2.642,-8.722 -2.642,-13.864 0,-5.147 0.931,-9.935 2.787,-14.369 1.856,-4.429 4.452,-8.237 7.788,-11.432 3.335,-3.191 7.293,-5.691 11.863,-7.507 4.575,-1.806 9.581,-2.714 15.009,-2.714 4.67,0 8.723,0.572 12.149,1.716 3.431,1.143 6.268,2.714 8.505,4.715 2.237,2.002 3.908,4.316 5.006,6.935 1.094,2.623 1.643,5.41 1.643,8.36 0,6.957 -2.383,12.344 -7.148,16.152 -4.766,3.812 -11.147,5.718 -19.152,5.718 -4.003,0 -7.53,-0.499 -10.579,-1.502 -3.05,-0.998 -5.383,-2.405 -7.003,-4.216"
         style="fill:#0387c9;fill-rule:nonzero"
         id="path26" />
    </g>
  </g>
</svg>
